<svg id="Group_1" data-name="Group 1" xmlns="http://www.w3.org/2000/svg" viewBox="0 0 200 200"><defs><style>.cls-1{fill:#405453;}.cls-1,.cls-2,.cls-3,.cls-4{fill-rule:evenodd;}.cls-2{fill:#f39b37;}.cls-3{fill:#349187;}.cls-4{fill:#b8312b;}</style></defs><title>VandyApps</title><g id="Rounded_Rectangle_2" data-name="Rounded Rectangle 2"><path class="cls-1" d="M149.68,101.72H102.16a15.84,15.84,0,0,0,0,31.68h47.52a15.84,15.84,0,1,0,0-31.68Z"/></g><g id="Rounded_Rectangle_1" data-name="Rounded Rectangle 1"><path class="cls-2" d="M89.09,148.29l-51.36-108a16.15,16.15,0,0,0-21.34-7.61,15.71,15.71,0,0,0-7.73,21L60,160.7c3.76,7.91,12.31,11.31,20.34,7.61S92.85,156.2,89.09,148.29Z"/></g><g id="Rounded_Rectangle_1_copy_2" data-name="Rounded Rectangle 1 copy 2"><path class="cls-3" d="M191.36,148.33,140.88,40.27c-3.69-7.91-12.08-9.32-20-5.61s-12.29,11.12-8.59,19L162.8,161.75a15.78,15.78,0,1,0,28.56-13.42Z"/></g><g id="Rounded_Rectangle_1_copy" data-name="Rounded Rectangle 1 copy"><path class="cls-4" d="M133.24,32.66a16.17,16.17,0,0,0-21.36,7.61L60.46,148.33a15.71,15.71,0,0,0,7.73,21,16.17,16.17,0,0,0,21.36-7.61L141,53.68A15.71,15.71,0,0,0,133.24,32.66Z"/></g></svg>